<mxfile host="app.diagrams.net" modified="2023-06-19T14:08:37.567Z" agent="Mozilla/5.0 (Windows NT 10.0; Win64; x64) AppleWebKit/537.36 (KHTML, like Gecko) Chrome/114.0.0.0 Safari/537.36" etag="v_5Ev0p_vS6bWSt79zi4" version="21.5.0" type="device">
  <diagram name="Page-1" id="oGnmMEWN4tc5fS-vskxH">
    <mxGraphModel dx="880" dy="444" grid="1" gridSize="10" guides="1" tooltips="1" connect="1" arrows="1" fold="1" page="1" pageScale="1" pageWidth="850" pageHeight="1100" math="0" shadow="0">
      <root>
        <mxCell id="0" />
        <mxCell id="1" parent="0" />
        <mxCell id="fvmiorN43TW7IOBVYDCV-22" style="edgeStyle=orthogonalEdgeStyle;rounded=0;orthogonalLoop=1;jettySize=auto;html=1;exitX=0.5;exitY=1;exitDx=0;exitDy=0;entryX=0.5;entryY=0;entryDx=0;entryDy=0;" edge="1" parent="1" source="fvmiorN43TW7IOBVYDCV-15" target="fvmiorN43TW7IOBVYDCV-20">
          <mxGeometry relative="1" as="geometry" />
        </mxCell>
        <mxCell id="fvmiorN43TW7IOBVYDCV-15" value="" style="rounded=1;whiteSpace=wrap;html=1;fillColor=default;" vertex="1" parent="1">
          <mxGeometry x="105" y="250" width="540" height="350" as="geometry" />
        </mxCell>
        <mxCell id="fvmiorN43TW7IOBVYDCV-5" value="" style="edgeStyle=orthogonalEdgeStyle;rounded=0;orthogonalLoop=1;jettySize=auto;html=1;" edge="1" parent="1" source="fvmiorN43TW7IOBVYDCV-1" target="fvmiorN43TW7IOBVYDCV-4">
          <mxGeometry relative="1" as="geometry" />
        </mxCell>
        <mxCell id="fvmiorN43TW7IOBVYDCV-1" value="Start" style="ellipse;whiteSpace=wrap;html=1;" vertex="1" parent="1">
          <mxGeometry x="270" y="20" width="120" height="80" as="geometry" />
        </mxCell>
        <mxCell id="fvmiorN43TW7IOBVYDCV-27" style="edgeStyle=orthogonalEdgeStyle;rounded=0;orthogonalLoop=1;jettySize=auto;html=1;exitX=0.5;exitY=1;exitDx=0;exitDy=0;" edge="1" parent="1" source="fvmiorN43TW7IOBVYDCV-4">
          <mxGeometry relative="1" as="geometry">
            <mxPoint x="330" y="250" as="targetPoint" />
          </mxGeometry>
        </mxCell>
        <mxCell id="fvmiorN43TW7IOBVYDCV-4" value="create name array" style="whiteSpace=wrap;html=1;" vertex="1" parent="1">
          <mxGeometry x="270" y="150" width="120" height="60" as="geometry" />
        </mxCell>
        <mxCell id="fvmiorN43TW7IOBVYDCV-9" value="" style="edgeStyle=orthogonalEdgeStyle;rounded=0;orthogonalLoop=1;jettySize=auto;html=1;" edge="1" parent="1" source="fvmiorN43TW7IOBVYDCV-6" target="fvmiorN43TW7IOBVYDCV-8">
          <mxGeometry relative="1" as="geometry" />
        </mxCell>
        <mxCell id="fvmiorN43TW7IOBVYDCV-11" value="" style="edgeStyle=orthogonalEdgeStyle;rounded=0;orthogonalLoop=1;jettySize=auto;html=1;" edge="1" parent="1" source="fvmiorN43TW7IOBVYDCV-6" target="fvmiorN43TW7IOBVYDCV-10">
          <mxGeometry relative="1" as="geometry" />
        </mxCell>
        <mxCell id="fvmiorN43TW7IOBVYDCV-6" value="For each name that&lt;br&gt;&amp;nbsp;starts with &quot;A&quot;" style="rhombus;whiteSpace=wrap;html=1;" vertex="1" parent="1">
          <mxGeometry x="240" y="280" width="170" height="130" as="geometry" />
        </mxCell>
        <mxCell id="fvmiorN43TW7IOBVYDCV-8" value="update counter" style="whiteSpace=wrap;html=1;" vertex="1" parent="1">
          <mxGeometry x="265" y="490" width="120" height="60" as="geometry" />
        </mxCell>
        <mxCell id="fvmiorN43TW7IOBVYDCV-10" value="do nothing" style="whiteSpace=wrap;html=1;" vertex="1" parent="1">
          <mxGeometry x="490" y="315" width="120" height="60" as="geometry" />
        </mxCell>
        <mxCell id="fvmiorN43TW7IOBVYDCV-24" style="edgeStyle=orthogonalEdgeStyle;rounded=0;orthogonalLoop=1;jettySize=auto;html=1;exitX=0.5;exitY=1;exitDx=0;exitDy=0;" edge="1" parent="1" source="fvmiorN43TW7IOBVYDCV-20" target="fvmiorN43TW7IOBVYDCV-23">
          <mxGeometry relative="1" as="geometry" />
        </mxCell>
        <mxCell id="fvmiorN43TW7IOBVYDCV-20" value="Display output" style="shape=parallelogram;perimeter=parallelogramPerimeter;whiteSpace=wrap;html=1;fixedSize=1;" vertex="1" parent="1">
          <mxGeometry x="260" y="710" width="230" height="70" as="geometry" />
        </mxCell>
        <mxCell id="fvmiorN43TW7IOBVYDCV-23" value="Stop" style="ellipse;whiteSpace=wrap;html=1;" vertex="1" parent="1">
          <mxGeometry x="315" y="870" width="120" height="80" as="geometry" />
        </mxCell>
        <mxCell id="fvmiorN43TW7IOBVYDCV-28" value="false" style="text;html=1;strokeColor=none;fillColor=none;align=center;verticalAlign=middle;whiteSpace=wrap;rounded=0;" vertex="1" parent="1">
          <mxGeometry x="425" y="315" width="60" height="30" as="geometry" />
        </mxCell>
        <mxCell id="fvmiorN43TW7IOBVYDCV-29" value="true" style="text;html=1;strokeColor=none;fillColor=none;align=center;verticalAlign=middle;whiteSpace=wrap;rounded=0;" vertex="1" parent="1">
          <mxGeometry x="330" y="430" width="60" height="30" as="geometry" />
        </mxCell>
      </root>
    </mxGraphModel>
  </diagram>
</mxfile>
